# Blender v2.83.16 OBJ File: ''
# www.blender.org
mtllib circle.mtl
o Circle
v 0.000000 0.000000 -1.000000
v -0.195090 0.000000 -0.980785
v -0.382683 0.000000 -0.923880
v -0.555570 0.000000 -0.831470
v -0.707107 0.000000 -0.707107
v -0.831470 0.000000 -0.555570
v -0.923880 0.000000 -0.382683
v -0.980785 0.000000 -0.195090
v -1.000000 0.000000 -0.000000
v -0.980785 0.000000 0.195090
v -0.923880 0.000000 0.382683
v -0.831470 0.000000 0.555570
v -0.707107 0.000000 0.707107
v -0.555570 0.000000 0.831470
v -0.382683 0.000000 0.923880
v -0.195090 0.000000 0.980785
v 0.000000 0.000000 1.000000
v 0.195091 0.000000 0.980785
v 0.382684 0.000000 0.923879
v 0.555571 0.000000 0.831469
v 0.707107 0.000000 0.707106
v 0.831470 0.000000 0.555570
v 0.923880 0.000000 0.382683
v 0.980785 0.000000 0.195089
v 1.000000 0.000000 -0.000001
v 0.980785 0.000000 -0.195091
v 0.923879 0.000000 -0.382684
v 0.831469 0.000000 -0.555571
v 0.707106 0.000000 -0.707108
v 0.555569 0.000000 -0.831470
v 0.382682 0.000000 -0.923880
v 0.195089 0.000000 -0.980786
v 0.000000 0.000000 -1.529240
v -0.298340 0.000000 -1.499856
v -0.585215 0.000000 -1.412834
v -0.849600 0.000000 -1.271517
v -1.081336 0.000000 -1.081336
v -1.271517 0.000000 -0.849600
v -1.412834 0.000000 -0.585215
v -1.499856 0.000000 -0.298340
v -1.529240 0.000000 -0.000000
v -1.499856 0.000000 0.298340
v -1.412834 0.000000 0.585215
v -1.271517 0.000000 0.849600
v -1.081336 0.000000 1.081336
v -0.849600 0.000000 1.271517
v -0.585215 0.000000 1.412834
v -0.298340 0.000000 1.499856
v 0.000000 0.000000 1.529240
v 0.298341 0.000000 1.499856
v 0.585216 0.000000 1.412833
v 0.849601 0.000000 1.271516
v 1.081337 0.000000 1.081335
v 1.271517 0.000000 0.849599
v 1.412834 0.000000 0.585214
v 1.499856 0.000000 0.298339
v 1.529240 0.000000 -0.000001
v 1.499856 0.000000 -0.298342
v 1.412833 0.000000 -0.585216
v 1.271516 0.000000 -0.849602
v 1.081335 0.000000 -1.081337
v 0.849599 0.000000 -1.271518
v 0.585213 0.000000 -1.412834
v 0.298338 0.000000 -1.499857
v -0.195090 0.256988 -0.980785
v 0.000000 0.256988 -1.000000
v -0.382683 0.256988 -0.923880
v -0.555570 0.256988 -0.831470
v -0.707107 0.256988 -0.707107
v -0.831470 0.256988 -0.555570
v -0.923880 0.256988 -0.382683
v -0.980785 0.256988 -0.195090
v -1.000000 0.256988 -0.000000
v -0.980785 0.256988 0.195090
v -0.923880 0.256988 0.382683
v -0.831470 0.256988 0.555570
v -0.707107 0.256988 0.707107
v -0.555570 0.256988 0.831470
v -0.382683 0.256988 0.923880
v -0.195090 0.256988 0.980785
v 0.000000 0.256988 1.000000
v 0.195091 0.256988 0.980785
v 0.382684 0.256988 0.923879
v 0.555571 0.256988 0.831469
v 0.707107 0.256988 0.707106
v 0.831470 0.256988 0.555570
v 0.923880 0.256988 0.382683
v 0.980785 0.256988 0.195089
v 1.000000 0.256988 -0.000001
v 0.980785 0.256988 -0.195091
v 0.923879 0.256988 -0.382684
v 0.831469 0.256988 -0.555571
v 0.707106 0.256988 -0.707108
v 0.555569 0.256988 -0.831470
v 0.382682 0.256988 -0.923880
v 0.195089 0.256988 -0.980786
v -0.298340 0.256988 -1.499856
v 0.000000 0.256988 -1.529240
v -0.585215 0.256988 -1.412834
v -0.849600 0.256988 -1.271517
v -1.081336 0.256988 -1.081336
v -1.271517 0.256988 -0.849600
v -1.412834 0.256988 -0.585215
v -1.499856 0.256988 -0.298340
v -1.529240 0.256988 -0.000000
v -1.499856 0.256988 0.298340
v -1.412834 0.256988 0.585215
v -1.271517 0.256988 0.849600
v -1.081336 0.256988 1.081336
v -0.849600 0.256988 1.271517
v -0.585215 0.256988 1.412834
v -0.298340 0.256988 1.499856
v 0.000000 0.256988 1.529240
v 0.298341 0.256988 1.499856
v 0.585216 0.256988 1.412833
v 0.849601 0.256988 1.271516
v 1.081337 0.256988 1.081335
v 1.271517 0.256988 0.849599
v 1.412834 0.256988 0.585214
v 1.499856 0.256988 0.298339
v 1.529240 0.256988 -0.000001
v 1.499856 0.256988 -0.298342
v 1.412833 0.256988 -0.585216
v 1.271516 0.256988 -0.849602
v 1.081335 0.256988 -1.081337
v 0.849599 0.256988 -1.271518
v 0.585213 0.256988 -1.412834
v 0.298338 0.256988 -1.499857
vt 0.000000 0.000000
vt 0.000000 0.000000
vt 0.000000 0.000000
vt 0.000000 0.000000
vt 0.000000 0.000000
vt 0.000000 0.000000
vt 0.000000 0.000000
vt 0.000000 0.000000
vt 0.000000 0.000000
vt 0.000000 0.000000
vt 0.000000 0.000000
vt 0.000000 0.000000
vt 0.000000 0.000000
vt 0.000000 0.000000
vt 0.000000 0.000000
vt 0.000000 0.000000
vt 0.000000 0.000000
vt 0.000000 0.000000
vt 0.000000 0.000000
vt 0.000000 0.000000
vt 0.000000 0.000000
vt 0.000000 0.000000
vt 0.000000 0.000000
vt 0.000000 0.000000
vt 0.000000 0.000000
vt 0.000000 0.000000
vt 0.000000 0.000000
vt 0.000000 0.000000
vt 0.000000 0.000000
vt 0.000000 0.000000
vt 0.000000 0.000000
vt 0.000000 0.000000
vt 0.000000 0.000000
vt 0.000000 0.000000
vt 0.000000 0.000000
vt 0.000000 0.000000
vt 0.000000 0.000000
vt 0.000000 0.000000
vt 0.000000 0.000000
vt 0.000000 0.000000
vt 0.000000 0.000000
vt 0.000000 0.000000
vt 0.000000 0.000000
vt 0.000000 0.000000
vt 0.000000 0.000000
vt 0.000000 0.000000
vt 0.000000 0.000000
vt 0.000000 0.000000
vt 0.000000 0.000000
vt 0.000000 0.000000
vt 0.000000 0.000000
vt 0.000000 0.000000
vt 0.000000 0.000000
vt 0.000000 0.000000
vt 0.000000 0.000000
vt 0.000000 0.000000
vt 0.000000 0.000000
vt 0.000000 0.000000
vt 0.000000 0.000000
vt 0.000000 0.000000
vt 0.000000 0.000000
vt 0.000000 0.000000
vt 0.000000 0.000000
vt 0.000000 0.000000
vt 0.000000 0.000000
vt 0.000000 0.000000
vt 0.000000 0.000000
vt 0.000000 0.000000
vt 0.000000 0.000000
vt 0.000000 0.000000
vt 0.000000 0.000000
vt 0.000000 0.000000
vt 0.000000 0.000000
vt 0.000000 0.000000
vt 0.000000 0.000000
vt 0.000000 0.000000
vt 0.000000 0.000000
vt 0.000000 0.000000
vt 0.000000 0.000000
vt 0.000000 0.000000
vt 0.000000 0.000000
vt 0.000000 0.000000
vt 0.000000 0.000000
vt 0.000000 0.000000
vt 0.000000 0.000000
vt 0.000000 0.000000
vt 0.000000 0.000000
vt 0.000000 0.000000
vt 0.000000 0.000000
vt 0.000000 0.000000
vt 0.000000 0.000000
vt 0.000000 0.000000
vt 0.000000 0.000000
vt 0.000000 0.000000
vt 0.000000 0.000000
vt 0.000000 0.000000
vt 0.000000 0.000000
vt 0.000000 0.000000
vt 0.000000 0.000000
vt 0.000000 0.000000
vt 0.000000 0.000000
vt 0.000000 0.000000
vt 0.000000 0.000000
vt 0.000000 0.000000
vt 0.000000 0.000000
vt 0.000000 0.000000
vt 0.000000 0.000000
vt 0.000000 0.000000
vt 0.000000 0.000000
vt 0.000000 0.000000
vt 0.000000 0.000000
vt 0.000000 0.000000
vt 0.000000 0.000000
vt 0.000000 0.000000
vt 0.000000 0.000000
vt 0.000000 0.000000
vt 0.000000 0.000000
vt 0.000000 0.000000
vt 0.000000 0.000000
vt 0.000000 0.000000
vt 0.000000 0.000000
vt 0.000000 0.000000
vt 0.000000 0.000000
vt 0.000000 0.000000
vt 0.000000 0.000000
vt 0.000000 0.000000
vt 0.000000 0.000000
vt 0.000000 0.000000
vn 0.0000 -1.0000 0.0000
vn 0.0000 1.0000 0.0000
vn -0.8819 0.0000 0.4714
vn -0.0980 0.0000 -0.9952
vn -0.7730 0.0000 0.6344
vn -0.2903 0.0000 -0.9569
vn -0.6344 0.0000 0.7730
vn -0.4714 0.0000 -0.8819
vn -0.4714 0.0000 0.8819
vn -0.6344 0.0000 -0.7730
vn -0.2903 0.0000 0.9569
vn -0.7730 0.0000 -0.6344
vn -0.0980 0.0000 0.9952
vn -0.8819 0.0000 -0.4714
vn 0.0980 0.0000 0.9952
vn -0.9569 0.0000 -0.2903
vn 0.2903 0.0000 0.9569
vn -0.9952 0.0000 -0.0980
vn 0.4714 0.0000 0.8819
vn -0.9952 0.0000 0.0980
vn 0.6344 0.0000 0.7730
vn -0.9569 0.0000 0.2903
vn 0.7730 0.0000 0.6344
vn 0.8819 0.0000 0.4714
vn 0.9569 0.0000 0.2903
vn 0.9952 0.0000 0.0980
vn 0.9952 0.0000 -0.0980
vn 0.9569 0.0000 -0.2903
vn 0.8819 0.0000 -0.4714
vn 0.7730 0.0000 -0.6344
vn 0.6344 0.0000 -0.7730
vn 0.4714 0.0000 -0.8819
vn 0.2903 0.0000 -0.9569
vn 0.0980 0.0000 -0.9952
usemtl None
s off
f 11/1/1 43/2/1 42/3/1 10/4/1
f 25/5/1 57/6/1 56/7/1 24/8/1
f 12/9/1 44/10/1 43/2/1 11/1/1
f 26/11/1 58/12/1 57/6/1 25/5/1
f 13/13/1 45/14/1 44/10/1 12/9/1
f 27/15/1 59/16/1 58/12/1 26/11/1
f 14/17/1 46/18/1 45/14/1 13/13/1
f 28/19/1 60/20/1 59/16/1 27/15/1
f 15/21/1 47/22/1 46/18/1 14/17/1
f 2/23/1 34/24/1 33/25/1 1/26/1
f 29/27/1 61/28/1 60/20/1 28/19/1
f 16/29/1 48/30/1 47/22/1 15/21/1
f 3/31/1 35/32/1 34/24/1 2/23/1
f 30/33/1 62/34/1 61/28/1 29/27/1
f 17/35/1 49/36/1 48/30/1 16/29/1
f 4/37/1 36/38/1 35/32/1 3/31/1
f 31/39/1 63/40/1 62/34/1 30/33/1
f 18/41/1 50/42/1 49/36/1 17/35/1
f 5/43/1 37/44/1 36/38/1 4/37/1
f 32/45/1 64/46/1 63/40/1 31/39/1
f 19/47/1 51/48/1 50/42/1 18/41/1
f 6/49/1 38/50/1 37/44/1 5/43/1
f 1/26/1 33/25/1 64/46/1 32/45/1
f 20/51/1 52/52/1 51/48/1 19/47/1
f 7/53/1 39/54/1 38/50/1 6/49/1
f 21/55/1 53/56/1 52/52/1 20/51/1
f 8/57/1 40/58/1 39/54/1 7/53/1
f 22/59/1 54/60/1 53/56/1 21/55/1
f 9/61/1 41/62/1 40/58/1 8/57/1
f 23/63/1 55/64/1 54/60/1 22/59/1
f 10/4/1 42/3/1 41/62/1 9/61/1
f 24/8/1 56/7/1 55/64/1 23/63/1
f 75/65/2 74/66/2 106/67/2 107/68/2
f 89/69/2 88/70/2 120/71/2 121/72/2
f 76/73/2 75/65/2 107/68/2 108/74/2
f 90/75/2 89/69/2 121/72/2 122/76/2
f 77/77/2 76/73/2 108/74/2 109/78/2
f 91/79/2 90/75/2 122/76/2 123/80/2
f 78/81/2 77/77/2 109/78/2 110/82/2
f 92/83/2 91/79/2 123/80/2 124/84/2
f 79/85/2 78/81/2 110/82/2 111/86/2
f 65/87/2 66/88/2 98/89/2 97/90/2
f 93/91/2 92/83/2 124/84/2 125/92/2
f 80/93/2 79/85/2 111/86/2 112/94/2
f 67/95/2 65/87/2 97/90/2 99/96/2
f 94/97/2 93/91/2 125/92/2 126/98/2
f 81/99/2 80/93/2 112/94/2 113/100/2
f 68/101/2 67/95/2 99/96/2 100/102/2
f 95/103/2 94/97/2 126/98/2 127/104/2
f 82/105/2 81/99/2 113/100/2 114/106/2
f 69/107/2 68/101/2 100/102/2 101/108/2
f 96/109/2 95/103/2 127/104/2 128/110/2
f 83/111/2 82/105/2 114/106/2 115/112/2
f 70/113/2 69/107/2 101/108/2 102/114/2
f 66/88/2 96/109/2 128/110/2 98/89/2
f 84/115/2 83/111/2 115/112/2 116/116/2
f 71/117/2 70/113/2 102/114/2 103/118/2
f 85/119/2 84/115/2 116/116/2 117/120/2
f 72/121/2 71/117/2 103/118/2 104/122/2
f 86/123/2 85/119/2 117/120/2 118/124/2
f 73/125/2 72/121/2 104/122/2 105/126/2
f 87/127/2 86/123/2 118/124/2 119/128/2
f 74/66/2 73/125/2 105/126/2 106/67/2
f 88/70/2 87/127/2 119/128/2 120/71/2
f 43/2/3 44/10/3 108/74/3 107/68/3
f 18/41/4 17/35/4 81/99/4 82/105/4
f 44/10/5 45/14/5 109/78/5 108/74/5
f 19/47/6 18/41/6 82/105/6 83/111/6
f 45/14/7 46/18/7 110/82/7 109/78/7
f 20/51/8 19/47/8 83/111/8 84/115/8
f 46/18/9 47/22/9 111/86/9 110/82/9
f 21/55/10 20/51/10 84/115/10 85/119/10
f 47/22/11 48/30/11 112/94/11 111/86/11
f 22/59/12 21/55/12 85/119/12 86/123/12
f 48/30/13 49/36/13 113/100/13 112/94/13
f 23/63/14 22/59/14 86/123/14 87/127/14
f 49/36/15 50/42/15 114/106/15 113/100/15
f 24/8/16 23/63/16 87/127/16 88/70/16
f 50/42/17 51/48/17 115/112/17 114/106/17
f 25/5/18 24/8/18 88/70/18 89/69/18
f 51/48/19 52/52/19 116/116/19 115/112/19
f 26/11/20 25/5/20 89/69/20 90/75/20
f 52/52/21 53/56/21 117/120/21 116/116/21
f 27/15/22 26/11/22 90/75/22 91/79/22
f 53/56/23 54/60/23 118/124/23 117/120/23
f 28/19/3 27/15/3 91/79/3 92/83/3
f 2/23/15 1/26/15 66/88/15 65/87/15
f 54/60/24 55/64/24 119/128/24 118/124/24
f 29/27/5 28/19/5 92/83/5 93/91/5
f 3/31/17 2/23/17 65/87/17 67/95/17
f 55/64/25 56/7/25 120/71/25 119/128/25
f 30/33/7 29/27/7 93/91/7 94/97/7
f 4/37/19 3/31/19 67/95/19 68/101/19
f 56/7/26 57/6/26 121/72/26 120/71/26
f 31/39/9 30/33/9 94/97/9 95/103/9
f 5/43/21 4/37/21 68/101/21 69/107/21
f 57/6/27 58/12/27 122/76/27 121/72/27
f 32/45/11 31/39/11 95/103/11 96/109/11
f 6/49/23 5/43/23 69/107/23 70/113/23
f 58/12/28 59/16/28 123/80/28 122/76/28
f 1/26/13 32/45/13 96/109/13 66/88/13
f 7/53/24 6/49/24 70/113/24 71/117/24
f 59/16/29 60/20/29 124/84/29 123/80/29
f 33/25/4 34/24/4 97/90/4 98/89/4
f 8/57/25 7/53/25 71/117/25 72/121/25
f 60/20/30 61/28/30 125/92/30 124/84/30
f 34/24/6 35/32/6 99/96/6 97/90/6
f 9/61/26 8/57/26 72/121/26 73/125/26
f 61/28/31 62/34/31 126/98/31 125/92/31
f 35/32/8 36/38/8 100/102/8 99/96/8
f 10/4/27 9/61/27 73/125/27 74/66/27
f 62/34/32 63/40/32 127/104/32 126/98/32
f 36/38/10 37/44/10 101/108/10 100/102/10
f 11/1/28 10/4/28 74/66/28 75/65/28
f 63/40/33 64/46/33 128/110/33 127/104/33
f 37/44/12 38/50/12 102/114/12 101/108/12
f 12/9/29 11/1/29 75/65/29 76/73/29
f 64/46/34 33/25/34 98/89/34 128/110/34
f 38/50/14 39/54/14 103/118/14 102/114/14
f 13/13/30 12/9/30 76/73/30 77/77/30
f 39/54/16 40/58/16 104/122/16 103/118/16
f 14/17/31 13/13/31 77/77/31 78/81/31
f 40/58/18 41/62/18 105/126/18 104/122/18
f 15/21/32 14/17/32 78/81/32 79/85/32
f 41/62/20 42/3/20 106/67/20 105/126/20
f 16/29/33 15/21/33 79/85/33 80/93/33
f 42/3/22 43/2/22 107/68/22 106/67/22
f 17/35/34 16/29/34 80/93/34 81/99/34
